{
  "accessors": [
    {
      "bufferView": 2,
      "componentType": 5126,
      "count": 1806,
      "max": [
        24.108333587646484,
        17.019065856933594,
        27.089565277099609
      ],
      "min": [
        -24.108327865600586,
        0,
        -28.975412368774414
      ],
      "type": "VEC3"
    },
    {
      "bufferView": 2,
      "byteOffset": 21672,
      "componentType": 5126,
      "count": 1806,
      "max": [
        0.99947309494018555,
        1,
        0.99854207038879395
      ],
      "min": [
        -0.999472975730896,
        -1,
        -0.99854207038879395
      ],
      "type": "VEC3"
    },
    {
      "bufferView": 3,
      "componentType": 5126,
      "count": 1806,
      "max": [
        1,
        1,
        0.99860179424285889,
        1
      ],
      "min": [
        -1,
        -0.92320901155471802,
        -0.99997627735137939,
        -1
      ],
      "type": "VEC4"
    },
    {
      "bufferView": 1,
      "componentType": 5126,
      "count": 1806,
      "max": [
        0.99330228567123413,
        0.9948573112487793
      ],
      "min": [
        0.0029816529713571072,
        0.0015734806656837463
      ],
      "type": "VEC2"
    },
    {
      "bufferView": 0,
      "componentType": 5125,
      "count": 6576,
      "max": [
        1805
      ],
      "min": [
        0
      ],
      "type": "SCALAR"
    }
  ],
  "asset": {
    "extras": {
      "author": "Isa Raaijmakers (https://sketchfab.com/CptPyros)",
      "license": "CC-BY-4.0 (http://creativecommons.org/licenses/by/4.0/)",
      "source": "https://sketchfab.com/3d-models/blueberry-lemon-cake-c4c071378ad242138b8614122c92cf17",
      "title": "Blueberry Lemon Cake"
    },
    "generator": "Sketchfab-6.38.0",
    "version": "2.0"
  },
  "bufferViews": [
    {
      "buffer": 0,
      "byteLength": 26304,
      "byteOffset": 0,
      "name": "floatBufferViews",
      "target": 34963
    },
    {
      "buffer": 0,
      "byteLength": 14448,
      "byteOffset": 26304,
      "byteStride": 8,
      "name": "floatBufferViews",
      "target": 34962
    },
    {
      "buffer": 0,
      "byteLength": 43344,
      "byteOffset": 40752,
      "byteStride": 12,
      "name": "floatBufferViews",
      "target": 34962
    },
    {
      "buffer": 0,
      "byteLength": 28896,
      "byteOffset": 84096,
      "byteStride": 16,
      "name": "floatBufferViews",
      "target": 34962
    }
  ],
  "buffers": [
    {
      "byteLength": 112992,
      "uri": "scene.bin"
    }
  ],
  "extensionsUsed": [
    "KHR_materials_unlit"
  ],
  "images": [
    {
      "uri": "textures/Checker_baseColor.png"
    }
  ],
  "materials": [
    {
      "doubleSided": true,
      "extensions": {
        "KHR_materials_unlit": {}
      },
      "name": "Checker",
      "pbrMetallicRoughness": {
        "baseColorFactor": [
          1,
          1,
          1,
          1
        ],
        "baseColorTexture": {
          "index": 0,
          "texCoord": 0
        },
        "metallicFactor": 0,
        "roughnessFactor": 1
      }
    }
  ],
  "meshes": [
    {
      "name": "Cake_V3_Checker_0",
      "primitives": [
        {
          "attributes": {
            "NORMAL": 1,
            "POSITION": 0,
            "TANGENT": 2,
            "TEXCOORD_0": 3
          },
          "indices": 4,
          "material": 0,
          "mode": 4
        }
      ]
    }
  ],
  "nodes": [
    {
      "children": [
        1
      ],
      "name": "RootNode (gltf orientation matrix)",
      "rotation": [
        -0.70710678118654746,
        -0,
        -0,
        0.70710678118654757
      ]
    },
    {
      "children": [
        2
      ],
      "matrix": [
        4.4408920985006262e-16,
        -1,
        2.832769343193999e-16,
        0,
        -1,
        -4.4408920985006262e-16,
        1.6081226229577292e-16,
        0,
        -1.6081226229577292e-16,
        -2.832769343193999e-16,
        -1,
        0,
        -0.94282341003417969,
        -0.94282341003417969,
        -17.019065856933594,
        1
      ],
      "name": "RootNode (model correction matrix)"
    },
    {
      "children": [
        3
      ],
      "matrix": [
        1,
        0,
        0,
        0,
        0,
        -1,
        0,
        0,
        0,
        0,
        -1,
        0,
        0,
        0,
        0,
        1
      ],
      "name": "8eae8f9f40fe4124bcb6bcab910b4d39.fbx"
    },
    {
      "children": [
        4
      ],
      "name": "RootNode"
    },
    {
      "children": [
        5
      ],
      "matrix": [
        1,
        0,
        0,
        0,
        0,
        2.2204460492503131e-16,
        1,
        0,
        0,
        -1,
        2.2204460492503131e-16,
        0,
        0,
        -8.8817841970012523e-16,
        0,
        1
      ],
      "name": "Cake_V3"
    },
    {
      "mesh": 0,
      "name": "Cake_V3_Checker_0"
    }
  ],
  "samplers": [
    {
      "magFilter": 9729,
      "minFilter": 9987,
      "wrapS": 10497,
      "wrapT": 10497
    }
  ],
  "scene": 0,
  "scenes": [
    {
      "name": "OSG_Scene",
      "nodes": [
        0
      ]
    }
  ],
  "textures": [
    {
      "sampler": 0,
      "source": 0
    }
  ]
}

